<svg width="450" height="80" viewBox="0 0 450 80" fill="none" xmlns="http://www.w3.org/2000/svg">
<rect width="450" height="80" rx="8" fill="#BC1705"/>
<path d="M158.116 47.01H149.776L148.396 51H143.986L151.516 30.03H156.406L163.936 51H159.496L158.116 47.01ZM156.976 43.65L153.946 34.89L150.916 43.65H156.976ZM157.216 25.71L150.316 28.86V25.86L157.216 22.29V25.71ZM177.551 51L172.931 42.84H170.951V51H166.751V30.06H174.611C176.231 30.06 177.611 30.35 178.751 30.93C179.891 31.49 180.741 32.26 181.301 33.24C181.881 34.2 182.171 35.28 182.171 36.48C182.171 37.86 181.771 39.11 180.971 40.23C180.171 41.33 178.981 42.09 177.401 42.51L182.411 51H177.551ZM170.951 39.69H174.461C175.601 39.69 176.451 39.42 177.011 38.88C177.571 38.32 177.851 37.55 177.851 36.57C177.851 35.61 177.571 34.87 177.011 34.35C176.451 33.81 175.601 33.54 174.461 33.54H170.951V39.69ZM190.169 33.45V38.7H197.219V42.03H190.169V47.58H198.119V51H185.969V30.03H198.119V33.45H190.169ZM214.776 47.01H206.436L205.056 51H200.646L208.176 30.03H213.066L220.596 51H216.156L214.776 47.01ZM213.636 43.65L210.606 34.89L207.576 43.65H213.636ZM253.389 30.06V51H249.189V37.38L243.579 51H240.399L234.759 37.38V51H230.559V30.06H235.329L241.989 45.63L248.649 30.06H253.389ZM261.742 33.45V38.7H268.792V42.03H261.742V47.58H269.692V51H257.542V30.03H269.692V33.45H261.742ZM266.752 25.71L259.852 28.86V25.86L266.752 22.29V25.71ZM280.828 30.06C283.028 30.06 284.958 30.49 286.618 31.35C288.298 32.21 289.588 33.44 290.488 35.04C291.408 36.62 291.868 38.46 291.868 40.56C291.868 42.66 291.408 44.5 290.488 46.08C289.588 47.64 288.298 48.85 286.618 49.71C284.958 50.57 283.028 51 280.828 51H273.508V30.06H280.828ZM280.678 47.43C282.878 47.43 284.578 46.83 285.778 45.63C286.978 44.43 287.578 42.74 287.578 40.56C287.578 38.38 286.978 36.68 285.778 35.46C284.578 34.22 282.878 33.6 280.678 33.6H277.708V47.43H280.678ZM299.212 30.06V51H295.012V30.06H299.212ZM302.342 40.5C302.342 38.44 302.802 36.6 303.722 34.98C304.662 33.34 305.932 32.07 307.532 31.17C309.152 30.25 310.962 29.79 312.962 29.79C315.302 29.79 317.352 30.39 319.112 31.59C320.872 32.79 322.102 34.45 322.802 36.57H317.972C317.492 35.57 316.812 34.82 315.932 34.32C315.072 33.82 314.072 33.57 312.932 33.57C311.712 33.57 310.622 33.86 309.662 34.44C308.722 35 307.982 35.8 307.442 36.84C306.922 37.88 306.662 39.1 306.662 40.5C306.662 41.88 306.922 43.1 307.442 44.16C307.982 45.2 308.722 46.01 309.662 46.59C310.622 47.15 311.712 47.43 312.932 47.43C314.072 47.43 315.072 47.18 315.932 46.68C316.812 46.16 317.492 45.4 317.972 44.4H322.802C322.102 46.54 320.872 48.21 319.112 49.41C317.372 50.59 315.322 51.18 312.962 51.18C310.962 51.18 309.152 50.73 307.532 49.83C305.932 48.91 304.662 47.64 303.722 46.02C302.802 44.4 302.342 42.56 302.342 40.5ZM339.229 47.01H330.889L329.509 51H325.099L332.629 30.03H337.519L345.049 51H340.609L339.229 47.01ZM338.089 43.65L335.059 34.89L332.029 43.65H338.089Z" fill="white"/>
<path d="M116.333 52.4667L114.4 50.7067C107.533 44.48 103 40.3733 103 35.3333C103 31.2267 106.227 28 110.333 28C112.653 28 114.88 29.08 116.333 30.7867C117.787 29.08 120.013 28 122.333 28C126.44 28 129.667 31.2267 129.667 35.3333C129.667 40.3733 125.133 44.48 118.267 50.72L116.333 52.4667Z" fill="white"/>
</svg>
