<svg width="450" height="80" viewBox="0 0 450 80" fill="none" xmlns="http://www.w3.org/2000/svg">
<rect width="450" height="80" rx="8" fill="#338837"/>
<path d="M185.409 40.5C185.409 38.44 185.869 36.6 186.789 34.98C187.729 33.34 188.999 32.07 190.599 31.17C192.219 30.25 194.029 29.79 196.029 29.79C198.369 29.79 200.419 30.39 202.179 31.59C203.939 32.79 205.169 34.45 205.869 36.57H201.039C200.559 35.57 199.879 34.82 198.999 34.32C198.139 33.82 197.139 33.57 195.999 33.57C194.779 33.57 193.689 33.86 192.729 34.44C191.789 35 191.049 35.8 190.509 36.84C189.989 37.88 189.729 39.1 189.729 40.5C189.729 41.88 189.989 43.1 190.509 44.16C191.049 45.2 191.789 46.01 192.729 46.59C193.689 47.15 194.779 47.43 195.999 47.43C197.139 47.43 198.139 47.18 198.999 46.68C199.879 46.16 200.559 45.4 201.039 44.4H205.869C205.169 46.54 203.939 48.21 202.179 49.41C200.439 50.59 198.389 51.18 196.029 51.18C194.029 51.18 192.219 50.73 190.599 49.83C188.999 48.91 187.729 47.64 186.789 46.02C185.869 44.4 185.409 42.56 185.409 40.5ZM213.597 30.06V43.02C213.597 44.44 213.967 45.53 214.707 46.29C215.447 47.03 216.487 47.4 217.827 47.4C219.187 47.4 220.237 47.03 220.977 46.29C221.717 45.53 222.087 44.44 222.087 43.02V30.06H226.317V42.99C226.317 44.77 225.927 46.28 225.147 47.52C224.387 48.74 223.357 49.66 222.057 50.28C220.777 50.9 219.347 51.21 217.767 51.21C216.207 51.21 214.787 50.9 213.507 50.28C212.247 49.66 211.247 48.74 210.507 47.52C209.767 46.28 209.397 44.77 209.397 42.99V30.06H213.597ZM241.175 51L236.555 42.84H234.575V51H230.375V30.06H238.235C239.855 30.06 241.235 30.35 242.375 30.93C243.515 31.49 244.365 32.26 244.925 33.24C245.505 34.2 245.795 35.28 245.795 36.48C245.795 37.86 245.395 39.11 244.595 40.23C243.795 41.33 242.605 42.09 241.025 42.51L246.035 51H241.175ZM234.575 39.69H238.085C239.225 39.69 240.075 39.42 240.635 38.88C241.195 38.32 241.475 37.55 241.475 36.57C241.475 35.61 241.195 34.87 240.635 34.35C240.075 33.81 239.225 33.54 238.085 33.54H234.575V39.69ZM256.823 51.21C255.363 51.21 254.043 50.96 252.863 50.46C251.703 49.96 250.783 49.24 250.103 48.3C249.423 47.36 249.073 46.25 249.053 44.97H253.553C253.613 45.83 253.913 46.51 254.453 47.01C255.013 47.51 255.773 47.76 256.733 47.76C257.713 47.76 258.483 47.53 259.043 47.07C259.603 46.59 259.883 45.97 259.883 45.21C259.883 44.59 259.693 44.08 259.313 43.68C258.933 43.28 258.453 42.97 257.873 42.75C257.313 42.51 256.533 42.25 255.533 41.97C254.173 41.57 253.063 41.18 252.203 40.8C251.363 40.4 250.633 39.81 250.013 39.03C249.413 38.23 249.113 37.17 249.113 35.85C249.113 34.61 249.423 33.53 250.043 32.61C250.663 31.69 251.533 30.99 252.653 30.51C253.773 30.01 255.053 29.76 256.493 29.76C258.653 29.76 260.403 30.29 261.743 31.35C263.103 32.39 263.853 33.85 263.993 35.73H259.373C259.333 35.01 259.023 34.42 258.443 33.96C257.883 33.48 257.133 33.24 256.193 33.24C255.373 33.24 254.713 33.45 254.213 33.87C253.733 34.29 253.493 34.9 253.493 35.7C253.493 36.26 253.673 36.73 254.033 37.11C254.413 37.47 254.873 37.77 255.413 38.01C255.973 38.23 256.753 38.49 257.753 38.79C259.113 39.19 260.223 39.59 261.083 39.99C261.943 40.39 262.683 40.99 263.303 41.79C263.923 42.59 264.233 43.64 264.233 44.94C264.233 46.06 263.943 47.1 263.363 48.06C262.783 49.02 261.933 49.79 260.813 50.37C259.693 50.93 258.363 51.21 256.823 51.21ZM277.595 51.21C275.635 51.21 273.835 50.75 272.195 49.83C270.555 48.91 269.255 47.64 268.295 46.02C267.335 44.38 266.855 42.53 266.855 40.47C266.855 38.43 267.335 36.6 268.295 34.98C269.255 33.34 270.555 32.06 272.195 31.14C273.835 30.22 275.635 29.76 277.595 29.76C279.575 29.76 281.375 30.22 282.995 31.14C284.635 32.06 285.925 33.34 286.865 34.98C287.825 36.6 288.305 38.43 288.305 40.47C288.305 42.53 287.825 44.38 286.865 46.02C285.925 47.64 284.635 48.91 282.995 49.83C281.355 50.75 279.555 51.21 277.595 51.21ZM277.595 47.46C278.855 47.46 279.965 47.18 280.925 46.62C281.885 46.04 282.635 45.22 283.175 44.16C283.715 43.1 283.985 41.87 283.985 40.47C283.985 39.07 283.715 37.85 283.175 36.81C282.635 35.75 281.885 34.94 280.925 34.38C279.965 33.82 278.855 33.54 277.595 33.54C276.335 33.54 275.215 33.82 274.235 34.38C273.275 34.94 272.525 35.75 271.985 36.81C271.445 37.85 271.175 39.07 271.175 40.47C271.175 41.87 271.445 43.1 271.985 44.16C272.525 45.22 273.275 46.04 274.235 46.62C275.215 47.18 276.335 47.46 277.595 47.46ZM298.659 51.21C297.199 51.21 295.879 50.96 294.699 50.46C293.539 49.96 292.619 49.24 291.939 48.3C291.259 47.36 290.909 46.25 290.889 44.97H295.389C295.449 45.83 295.749 46.51 296.289 47.01C296.849 47.51 297.609 47.76 298.569 47.76C299.549 47.76 300.319 47.53 300.879 47.07C301.439 46.59 301.719 45.97 301.719 45.21C301.719 44.59 301.529 44.08 301.149 43.68C300.769 43.28 300.289 42.97 299.709 42.75C299.149 42.51 298.369 42.25 297.369 41.97C296.009 41.57 294.899 41.18 294.039 40.8C293.199 40.4 292.469 39.81 291.849 39.03C291.249 38.23 290.949 37.17 290.949 35.85C290.949 34.61 291.259 33.53 291.879 32.61C292.499 31.69 293.369 30.99 294.489 30.51C295.609 30.01 296.889 29.76 298.329 29.76C300.489 29.76 302.239 30.29 303.579 31.35C304.939 32.39 305.689 33.85 305.829 35.73H301.209C301.169 35.01 300.859 34.42 300.279 33.96C299.719 33.48 298.969 33.24 298.029 33.24C297.209 33.24 296.549 33.45 296.049 33.87C295.569 34.29 295.329 34.9 295.329 35.7C295.329 36.26 295.509 36.73 295.869 37.11C296.249 37.47 296.709 37.77 297.249 38.01C297.809 38.23 298.589 38.49 299.589 38.79C300.949 39.19 302.059 39.59 302.919 39.99C303.779 40.39 304.519 40.99 305.139 41.79C305.759 42.59 306.069 43.64 306.069 44.94C306.069 46.06 305.779 47.1 305.199 48.06C304.619 49.02 303.769 49.79 302.649 50.37C301.529 50.93 300.199 51.21 298.659 51.21Z" fill="white"/>
<path d="M169.042 38.985L162.946 38.9728C162.275 38.9728 161.726 39.5215 161.726 40.192V51.1649C161.726 51.8354 162.275 52.3841 162.946 52.3841H169.042C169.712 52.3841 170.261 51.8354 170.261 51.1649V40.192C170.261 39.5215 169.712 38.985 169.042 38.985ZM169.042 49.9457H162.946V41.4112H169.042V49.9457ZM165.384 28H143.438C142.085 28 141 29.0851 141 30.4384V45.0688C141 46.41 142.085 47.5072 143.438 47.5072H151.973V49.9457H149.534V52.3841H159.288V49.9457H156.85V47.5072H159.288V45.0688H143.438V30.4384H165.384V36.5344H167.822V30.4384C167.822 29.0851 166.725 28 165.384 28ZM155.594 36.5344L154.411 32.8768L153.229 36.5344H149.534L152.546 38.6802L151.4 42.2281L154.411 40.0335L157.423 42.2281L156.277 38.6802L159.288 36.5344H155.594Z" fill="white"/>
</svg>
